# Blender v2.81 (sub 16) OBJ File: ''
# www.blender.org
mtllib mdlWallBoarding001_v001_SSM_LP_UV.mtl
o 000_Boarding_Middle_LP_000_Boarding_Middle_LP_000_Boarding_Middle_LP_000_Boarding_Midd
v 0.100000 0.000000 -2.599384
v 0.100000 0.000003 -3.398563
v 0.100000 3.995522 -3.398560
v 0.100000 3.995522 -2.599381
v 0.400000 0.000003 -3.398563
v 0.400000 3.995522 -3.398560
v 0.400000 3.995522 -2.599381
v 0.400000 4.095522 -2.499483
v 0.400000 4.095522 -3.498457
v 0.400000 0.000003 -3.498460
v 0.700000 4.095522 -3.498457
v 0.700000 4.095522 -2.499483
v 0.700000 0.000003 -3.498460
v 0.700000 0.000003 -4.497444
v 0.700000 4.095525 -4.497444
v 0.700000 4.595522 -3.498456
v 0.700000 4.595522 -2.499484
v 0.400000 4.595522 -3.498456
v 0.400000 4.595522 -2.499484
v 0.700000 4.595525 -4.497442
v 0.400000 4.595525 -4.497442
v 0.400000 4.695524 -4.497442
v 0.400000 4.695521 -3.498456
v 0.700000 4.095522 -1.500500
v 0.700000 0.000000 -1.500503
v 0.700000 0.000000 -2.499486
v 0.400000 0.000000 -2.599384
v 0.400000 0.000000 -2.499486
v 0.700000 4.595522 -1.500499
v 0.400000 4.595522 -1.500499
v 0.400000 4.695521 -2.499484
v 0.400000 4.695521 -1.500499
v -0.100136 4.695524 -4.497442
v -0.100136 4.695521 -3.498456
v -0.100136 4.695521 -2.499484
v -0.100136 4.695521 -1.500499
v 0.400000 4.695524 -5.496414
v 0.400000 4.595525 -5.496414
v 0.100000 0.000003 -4.597341
v 0.100000 0.000003 -5.396520
v 0.100000 3.995525 -5.396520
v 0.100000 3.995525 -4.597341
v 0.400000 0.000003 -5.396520
v 0.400000 3.995525 -5.396520
v 0.400000 3.995525 -4.597341
v 0.400000 4.095525 -4.497444
v 0.400000 4.095525 -5.496418
v 0.400000 0.000003 -5.496418
v 0.700000 4.095525 -5.496418
v 0.700000 0.000003 -5.496418
v 0.700000 0.000003 -6.495401
v 0.700000 4.095525 -6.495399
v 0.700000 4.595525 -5.496414
v 0.700000 4.595525 -6.495399
v 0.400000 4.595525 -6.495399
v 0.400000 4.695524 -6.495399
v -0.100136 4.695524 -6.495399
v -0.100136 4.695524 -5.496414
v 0.400000 0.000003 -4.597341
v 0.400000 0.000003 -4.497444
v 0.400000 4.695524 -7.494371
v 0.400000 4.595525 -7.494371
v 0.100000 0.000003 -6.595299
v 0.100000 0.000003 -7.394477
v 0.100000 3.995525 -7.394475
v 0.100000 3.995525 -6.595296
v 0.400000 0.000003 -7.394477
v 0.400000 3.995525 -7.394475
v 0.400000 3.995525 -6.595296
v 0.400000 4.095525 -6.495399
v 0.400000 4.095525 -7.494375
v 0.400000 0.000003 -7.494375
v 0.700000 4.095525 -7.494375
v 0.700000 0.000003 -7.494375
v 0.700000 0.000003 -8.493359
v 0.700000 4.095525 -8.493356
v 0.700000 4.595525 -7.494371
v 0.700000 4.595525 -8.493356
v 0.400000 4.595525 -8.493356
v 0.400000 4.695524 -8.493356
v -0.100136 4.695524 -8.493356
v -0.100136 4.695524 -7.494371
v 0.400000 0.000003 -6.595299
v 0.400000 0.000003 -6.495401
v 0.400000 4.695521 -0.501527
v 0.400000 4.595522 -0.501527
v 0.100000 0.000000 -0.601427
v 0.100000 0.000000 -1.400605
v 0.100000 3.995522 -1.400602
v 0.100000 3.995522 -0.601424
v 0.400000 0.000000 -1.400605
v 0.400000 3.995522 -1.400602
v 0.400000 3.995522 -0.601424
v 0.400000 4.095522 -0.501526
v 0.400000 4.095522 -1.500500
v 0.400000 0.000000 -1.500503
v 0.700000 4.095522 -0.501526
v 0.700000 4.595522 -0.501527
v -0.100136 4.695521 -0.501527
v 0.400000 0.000000 -0.601427
v 0.400000 0.000000 -0.501529
v 0.700000 0.000000 -0.501529
v 0.700000 0.000000 -0.002043
v 0.700898 4.095522 -0.002040
v 0.700898 4.595522 -0.002040
v 0.400898 4.595522 -0.002040
v 0.400000 4.695521 -0.002034
v 0.400898 4.095522 -0.002040
v 0.400000 0.000000 -0.002043
v -0.100136 4.695521 -0.002034
v -0.099238 4.595522 -0.002040
v -0.099238 4.095522 -0.002040
v 0.400000 4.695524 -9.492332
v 0.400000 4.595525 -9.492332
v -0.100136 0.000000 -0.002043
v 0.100000 0.000003 -8.593256
v 0.100000 0.000006 -9.392434
v 0.100000 3.995525 -9.392431
v 0.100000 3.995525 -8.593253
v 0.400000 0.000006 -9.392434
v 0.400000 3.995525 -9.392431
v 0.400000 3.995525 -8.593253
v 0.400000 4.095525 -8.493356
v 0.400000 4.095525 -9.492332
v 0.400000 0.000006 -9.492332
v 0.700000 4.095525 -9.492332
v 0.700000 0.000006 -9.492332
v 0.700000 4.595525 -9.492332
v 0.700000 0.000006 -9.991818
v 0.700898 4.095525 -9.991817
v -0.100136 4.695524 -9.492332
v 0.700898 4.595525 -9.991817
v 0.400898 4.595525 -9.991817
v 0.400000 4.695524 -9.991820
v 0.400000 0.000003 -8.593256
v 0.400000 0.000003 -8.493359
v 0.400898 0.000006 -9.991818
v 0.400898 4.097554 -9.991817
v -0.100136 4.695524 -9.991820
v -0.100136 0.000006 -9.991818
v -0.100136 4.097554 -9.991817
v -0.100136 4.595525 -9.991817
vt 0.717459 0.580055
vt 0.751730 0.580056
vt 0.751730 0.751395
vt 0.717459 0.751395
vt 0.836344 0.558720
vt 0.836344 0.387380
vt 0.849209 0.387380
vt 0.849209 0.558720
vt 0.836344 0.353109
vt 0.849209 0.353109
vt 0.864042 0.177582
vt 0.868326 0.173294
vt 0.902597 0.173294
vt 0.906881 0.177582
vt 0.906881 0.001953
vt 0.902597 0.001953
vt 0.737407 0.400238
vt 0.737407 0.357399
vt 0.750271 0.357399
vt 0.750271 0.400238
vt 0.750271 0.575867
vt 0.737407 0.575867
vt 0.192017 0.748387
vt 0.234856 0.748387
vt 0.234856 0.924015
vt 0.192017 0.924015
vt 0.149178 0.924015
vt 0.192016 0.945456
vt 0.149178 0.945456
vt 0.148903 0.951262
vt 0.191741 0.951262
vt 0.191741 0.964126
vt 0.148903 0.964126
vt 0.234856 0.945456
vt 0.234581 0.951262
vt 0.234581 0.964126
vt 0.234558 0.968462
vt 0.234558 0.972751
vt 0.191718 0.972751
vt 0.191718 0.968462
vt 0.106338 0.924015
vt 0.106338 0.748387
vt 0.149178 0.748387
vt 0.836344 0.181770
vt 0.849209 0.181770
vt 0.864042 0.001953
vt 0.868326 0.001953
vt 0.737407 0.181770
vt 0.750271 0.181770
vt 0.106338 0.945456
vt 0.106063 0.964126
vt 0.106063 0.951262
vt 0.106040 0.968462
vt 0.148880 0.968462
vt 0.148880 0.972751
vt 0.106040 0.972751
vt 0.192017 0.976599
vt 0.234856 0.976599
vt 0.234856 0.998047
vt 0.192017 0.998047
vt 0.149178 0.998047
vt 0.149178 0.976599
vt 0.106339 0.976599
vt 0.106339 0.998047
vt 0.277397 0.972751
vt 0.277397 0.968462
vt 0.756712 0.580055
vt 0.790983 0.580055
vt 0.790983 0.751395
vt 0.756712 0.751395
vt 0.856026 0.558720
vt 0.856026 0.387380
vt 0.868891 0.387380
vt 0.868891 0.558720
vt 0.856026 0.353109
vt 0.868891 0.353109
vt 0.717459 0.177582
vt 0.721743 0.173294
vt 0.756015 0.173294
vt 0.760298 0.177582
vt 0.760298 0.001953
vt 0.756015 0.001953
vt 0.757290 0.400238
vt 0.757290 0.357399
vt 0.770155 0.357399
vt 0.770155 0.400238
vt 0.770155 0.575867
vt 0.757290 0.575867
vt 0.277695 0.748387
vt 0.320534 0.748387
vt 0.320534 0.924015
vt 0.277695 0.924015
vt 0.277695 0.945456
vt 0.277420 0.951262
vt 0.277420 0.964126
vt 0.320534 0.945456
vt 0.320259 0.951262
vt 0.320259 0.964126
vt 0.320236 0.968462
vt 0.320236 0.972751
vt 0.277695 0.976599
vt 0.320534 0.976599
vt 0.320534 0.998047
vt 0.277695 0.998047
vt 0.856026 0.181770
vt 0.868891 0.181770
vt 0.717459 0.001953
vt 0.721743 0.001953
vt 0.757290 0.181770
vt 0.770155 0.181770
vt 0.363075 0.972751
vt 0.363075 0.968462
vt 0.795551 0.580055
vt 0.829822 0.580055
vt 0.829822 0.751395
vt 0.795551 0.751395
vt 0.873579 0.558720
vt 0.873579 0.387380
vt 0.886444 0.387380
vt 0.886444 0.558720
vt 0.873579 0.353109
vt 0.886444 0.353109
vt 0.765784 0.177582
vt 0.770069 0.173294
vt 0.804340 0.173294
vt 0.808623 0.177582
vt 0.808623 0.001953
vt 0.804340 0.001953
vt 0.777447 0.400238
vt 0.777447 0.357399
vt 0.790312 0.357399
vt 0.790312 0.400238
vt 0.790312 0.575867
vt 0.777447 0.575867
vt 0.363373 0.748387
vt 0.406212 0.748387
vt 0.406212 0.924015
vt 0.363373 0.924015
vt 0.363373 0.945456
vt 0.363098 0.951262
vt 0.363098 0.964126
vt 0.406212 0.945456
vt 0.405937 0.951262
vt 0.405937 0.964126
vt 0.405914 0.968462
vt 0.405914 0.972751
vt 0.363373 0.976599
vt 0.406213 0.976599
vt 0.406213 0.998047
vt 0.363373 0.998047
vt 0.873579 0.181770
vt 0.886444 0.181770
vt 0.765784 0.001953
vt 0.770069 0.001953
vt 0.777447 0.181770
vt 0.790312 0.181770
vt 0.063202 0.972751
vt 0.063202 0.968462
vt 0.833543 0.580055
vt 0.867814 0.580055
vt 0.867814 0.751395
vt 0.833543 0.751395
vt 0.818911 0.558720
vt 0.818911 0.387380
vt 0.831776 0.387380
vt 0.831776 0.558720
vt 0.818911 0.353109
vt 0.831776 0.353109
vt 0.814542 0.177582
vt 0.818825 0.173294
vt 0.853097 0.173294
vt 0.857380 0.177582
vt 0.857380 0.001953
vt 0.853097 0.001953
vt 0.717459 0.400238
vt 0.717459 0.357399
vt 0.730324 0.357399
vt 0.730324 0.400238
vt 0.730324 0.575867
vt 0.717459 0.575867
vt 0.063499 0.924015
vt 0.063500 0.945456
vt 0.063224 0.951262
vt 0.063224 0.964126
vt 0.063500 0.998047
vt 0.063500 0.976599
vt 0.818911 0.181770
vt 0.831776 0.181770
vt 0.814542 0.001953
vt 0.818825 0.001953
vt 0.717459 0.181770
vt 0.730324 0.181770
vt 0.042080 0.748387
vt 0.063499 0.748387
vt 0.042080 0.924015
vt 0.042080 0.945456
vt 0.041805 0.951223
vt 0.041805 0.964088
vt 0.041782 0.972751
vt 0.041782 0.968462
vt 0.023439 0.924015
vt 0.036304 0.924015
vt 0.036304 0.945456
vt 0.023439 0.945456
vt 0.023401 0.748387
vt 0.036265 0.748387
vt 0.023401 0.949744
vt 0.001953 0.949744
vt 0.001992 0.945456
vt 0.042080 0.976599
vt 0.042080 0.998047
vt 0.001992 0.924015
vt 0.448753 0.972751
vt 0.448753 0.968462
vt 0.001953 0.748387
vt 0.871679 0.580055
vt 0.905950 0.580056
vt 0.905950 0.751395
vt 0.871679 0.751395
vt 0.894985 0.558720
vt 0.894985 0.387380
vt 0.907850 0.387380
vt 0.907850 0.558720
vt 0.894985 0.353109
vt 0.907850 0.353109
vt 0.912840 0.177582
vt 0.917124 0.173294
vt 0.951395 0.173294
vt 0.955679 0.177582
vt 0.955679 0.001953
vt 0.951395 0.001953
vt 0.799146 0.400238
vt 0.799146 0.357399
vt 0.812011 0.357399
vt 0.812011 0.400238
vt 0.812011 0.575867
vt 0.799146 0.575867
vt 0.449051 0.924015
vt 0.449051 0.945456
vt 0.470470 0.748387
vt 0.470470 0.924015
vt 0.449051 0.748387
vt 0.448776 0.951262
vt 0.448776 0.964126
vt 0.449051 0.976599
vt 0.449051 0.998047
vt 0.470470 0.945456
vt 0.470195 0.951223
vt 0.470195 0.964088
vt 0.470172 0.968462
vt 0.470173 0.972751
vt 0.894985 0.181770
vt 0.907850 0.181770
vt 0.912840 0.001953
vt 0.917124 0.001953
vt 0.799146 0.181770
vt 0.812011 0.181770
vt 0.488475 0.748387
vt 0.488475 0.924102
vt 0.475611 0.924015
vt 0.475649 0.748387
vt 0.488475 0.945456
vt 0.475611 0.945456
vt 0.470471 0.976599
vt 0.470471 0.998047
vt 0.509961 0.748387
vt 0.509961 0.924102
vt 0.509961 0.945456
vt 0.509961 0.949744
vt 0.488514 0.949744
vn 1.0000 0.0000 0.0000
vn 0.0000 -0.0000 1.0000
vn 0.0000 -1.0000 0.0000
vn 0.0000 1.0000 0.0000
vn 0.0000 0.0000 -1.0000
vn 1.0000 0.0022 -0.0004
vn 1.0000 -0.0000 -0.0009
vn 1.0000 -0.0001 -0.0009
vn 1.0000 -0.0001 -0.0013
vn 1.0000 0.0000 -0.0018
vn 1.0000 0.0045 -0.0009
vn 0.0000 -0.0001 1.0000
vn 1.0000 0.0022 0.0004
vn 1.0000 -0.0000 0.0009
vn 1.0000 -0.0001 0.0009
vn 1.0000 -0.0001 0.0013
vn 1.0000 0.0000 0.0018
vn 1.0000 0.0045 0.0009
usemtl None:001.001
s 1
f 1/1/1 2/2/1 3/3/1 4/4/1
f 5/5/2 6/6/2 3/7/2 2/8/2
f 7/9/3 4/10/3 3/7/3 6/6/3
f 8/11/1 7/12/1 6/13/1 9/14/1
f 10/15/1 9/14/1 6/13/1 5/16/1
f 11/17/3 12/18/3 8/19/3 9/20/3
f 9/20/2 10/21/2 13/22/2 11/17/2
f 13/23/1 14/24/1 15/25/1 11/26/1
f 12/27/1 11/26/1 16/28/1 17/29/1
f 17/30/4 16/31/4 18/32/4 19/33/4
f 11/26/1 15/25/1 20/34/1 16/28/1
f 16/31/4 20/35/4 21/36/4 18/32/4
f 21/37/1 22/38/1 23/39/1 18/40/1
f 12/27/1 24/41/1 25/42/1 26/43/1
f 27/44/5 1/45/5 4/10/5 7/9/5
f 28/46/1 27/47/1 7/12/1 8/11/1
f 8/19/5 12/18/5 26/48/5 28/49/5
f 17/29/1 29/50/1 24/41/1 12/27/1
f 19/33/4 30/51/4 29/52/4 17/30/4
f 30/53/1 19/54/1 31/55/1 32/56/1
f 23/57/4 22/58/4 33/59/4 34/60/4
f 23/57/4 34/60/4 35/61/4 31/62/4
f 32/63/4 31/62/4 35/61/4 36/64/4
f 37/65/1 22/38/1 21/37/1 38/66/1
f 39/67/1 40/68/1 41/69/1 42/70/1
f 43/71/2 44/72/2 41/73/2 40/74/2
f 45/75/3 42/76/3 41/73/3 44/72/3
f 46/77/1 45/78/1 44/79/1 47/80/1
f 48/81/1 47/80/1 44/79/1 43/82/1
f 49/83/3 15/84/3 46/85/3 47/86/3
f 47/86/2 48/87/2 50/88/2 49/83/2
f 50/89/1 51/90/1 52/91/1 49/92/1
f 15/25/1 49/92/1 53/93/1 20/34/1
f 20/35/4 53/94/4 38/95/4 21/36/4
f 49/92/1 52/91/1 54/96/1 53/93/1
f 53/94/4 54/97/4 55/98/4 38/95/4
f 55/99/1 56/100/1 37/65/1 38/66/1
f 37/101/4 56/102/4 57/103/4 58/104/4
f 59/105/5 39/106/5 42/76/5 45/75/5
f 60/107/1 59/108/1 45/78/1 46/77/1
f 46/85/5 15/84/5 14/109/5 60/110/5
f 37/101/4 58/104/4 33/59/4 22/58/4
f 61/111/1 56/100/1 55/99/1 62/112/1
f 63/113/1 64/114/1 65/115/1 66/116/1
f 67/117/2 68/118/2 65/119/2 64/120/2
f 69/121/3 66/122/3 65/119/3 68/118/3
f 70/123/1 69/124/1 68/125/1 71/126/1
f 72/127/1 71/126/1 68/125/1 67/128/1
f 73/129/3 52/130/3 70/131/3 71/132/3
f 71/132/2 72/133/2 74/134/2 73/129/2
f 74/135/1 75/136/1 76/137/1 73/138/1
f 52/91/1 73/138/1 77/139/1 54/96/1
f 54/97/4 77/140/4 62/141/4 55/98/4
f 73/138/1 76/137/1 78/142/1 77/139/1
f 77/140/4 78/143/4 79/144/4 62/141/4
f 79/145/1 80/146/1 61/111/1 62/112/1
f 61/147/4 80/148/4 81/149/4 82/150/4
f 83/151/5 63/152/5 66/122/5 69/121/5
f 84/153/1 83/154/1 69/124/1 70/123/1
f 70/131/5 52/130/5 51/155/5 84/156/5
f 61/147/4 82/150/4 57/103/4 56/102/4
f 32/56/1 85/157/6 86/158/6 30/53/1
f 87/159/1 88/160/1 89/161/1 90/162/1
f 91/163/2 92/164/2 89/165/2 88/166/2
f 93/167/3 90/168/3 89/165/3 92/164/3
f 94/169/1 93/170/1 92/171/1 95/172/1
f 96/173/1 95/172/1 92/171/1 91/174/1
f 24/175/3 97/176/3 94/177/3 95/178/3
f 95/178/2 96/179/2 25/180/2 24/175/2
f 97/181/7 24/41/1 29/50/1 98/182/7
f 98/183/4 29/52/4 30/51/4 86/184/4
f 32/63/4 36/64/4 99/185/4 85/186/4
f 100/187/5 87/188/5 90/168/5 93/167/5
f 101/189/1 100/190/1 93/170/1 94/169/1
f 94/177/5 97/176/5 102/191/5 101/192/5
f 103/193/8 102/194/8 97/181/7 104/195/9
f 104/195/9 97/181/7 98/182/7 105/196/10
f 105/197/4 98/183/4 86/184/4 106/198/4
f 86/158/6 85/157/6 107/199/11 106/200/11
f 108/201/2 104/202/2 105/203/2 106/204/2
f 109/205/2 103/206/2 104/202/2 108/201/2
f 106/204/2 107/207/12 110/208/12 111/209/2
f 107/210/4 85/186/4 99/185/4 110/211/4
f 108/201/2 106/204/2 111/209/2 112/212/2
f 113/213/13 80/146/1 79/145/1 114/214/13
f 109/205/2 108/201/2 112/212/2 115/215/2
f 116/216/1 117/217/1 118/218/1 119/219/1
f 120/220/2 121/221/2 118/222/2 117/223/2
f 122/224/3 119/225/3 118/222/3 121/221/3
f 123/226/1 122/227/1 121/228/1 124/229/1
f 125/230/1 124/229/1 121/228/1 120/231/1
f 126/232/3 76/233/3 123/234/3 124/235/3
f 124/235/2 125/236/2 127/237/2 126/232/2
f 76/137/1 126/238/14 128/239/14 78/142/1
f 129/240/15 130/241/16 126/238/14 127/242/15
f 78/143/4 128/243/4 114/244/4 79/144/4
f 113/245/4 131/246/4 81/149/4 80/148/4
f 130/241/16 132/247/17 128/239/14 126/238/14
f 132/248/4 133/249/4 114/244/4 128/243/4
f 114/214/13 133/250/18 134/251/18 113/213/13
f 135/252/5 116/253/5 119/225/5 122/224/5
f 136/254/1 135/255/1 122/227/1 123/226/1
f 123/234/5 76/233/5 75/256/5 136/257/5
f 137/258/5 138/259/5 130/260/5 129/261/5
f 133/262/5 132/263/5 130/260/5 138/259/5
f 113/245/4 134/264/4 139/265/4 131/246/4
f 138/259/5 137/258/5 140/266/5 141/267/5
f 133/262/5 138/259/5 141/267/5 142/268/5
f 133/262/5 142/268/5 139/269/5 134/270/5
f 23/39/1 31/55/1 19/54/1 18/40/1
