# Blender v2.81 (sub 16) OBJ File: ''
# www.blender.org
mtllib mdlWallSegment001_v001_SSM_LP_UV.mtl
o 005_Wall_LP_005_Wall_LP_005_Wall_LP_005_Wall_LP_Plane:005
v 0.000000 15.000000 0.000006
v 0.000000 0.000000 0.000000
v 0.000000 0.000006 -10.000000
v 0.000000 15.000002 -9.999991
v -1.000000 15.000000 0.000006
v -1.000000 15.000002 -9.999991
v -1.000000 0.000006 -10.000000
v -1.000000 0.000000 0.000000
vt 0.049151 0.696579
vt 0.049151 0.053335
vt 0.477980 0.053335
vt 0.477980 0.696579
vt 0.049151 0.053335
vt 0.477980 0.053335
vt 0.477980 0.696579
vt 0.049151 0.696579
vt 0.049150 0.701316
vt 0.477980 0.701316
vt 0.477980 0.744199
vt 0.049150 0.744199
vt 0.044836 0.053334
vt 0.044836 0.696579
vt 0.001953 0.696579
vt 0.001953 0.053334
vt 0.477980 0.044836
vt 0.049150 0.044836
vt 0.049150 0.001953
vt 0.477980 0.001953
vt 0.481616 0.696579
vt 0.481616 0.053334
vt 0.524498 0.053334
vt 0.524498 0.696579
vn 1.0000 0.0000 0.0000
vn -1.0000 0.0000 0.0000
vn 0.0000 1.0000 0.0000
vn 0.0000 -0.0000 1.0000
vn 0.0000 -1.0000 -0.0000
vn 0.0000 0.0000 -1.0000
usemtl None:003
s 1
f 1/1/1 2/2/1 3/3/1 4/4/1
f 5/5/2 6/6/2 7/7/2 8/8/2
f 1/9/3 4/10/3 6/11/3 5/12/3
f 2/13/4 1/14/4 5/15/4 8/16/4
f 3/17/5 2/18/5 8/19/5 7/20/5
f 4/21/6 3/22/6 7/23/6 6/24/6
