#File written by LIBRIZOMUV. Compilation :Dec 13 2019,23:12:04
mtllib mdlWallCorner001_v001_SSM_LP:mtl
#begin vertices
v -0.026863 4.095522 -2.593596
v -0.026863 14.98746 -2.593596
v -0.026863 14.98746 -3.026864
v 0.406403 4.095522 -2.593596
v 0.406403 14.98746 -2.593596
v 0.406403 4.095522 -3.026864
v 0.406403 14.98746 -3.026864
v 0.4 0 -1.398563
v 0.4 4.095522 -1.49846
v 0.1 -0 -1.398563
v 0.1 3.995522 -1.398563
v 0.4 3.995522 -1.398563
v 0.4 0 -1.49846
v 0.7 4.095522 -1.49846
v 0.7 0 -1.49846
v 0.700446 4.595522 -1.746498
v 0.7 0 -1.746499
v 0.7 4.595522 -1.498459
v 0.4 4.695521 -1.498459
v 0.4 4.595522 -1.498459
v 0.4 4.695521 -1.746501
v 0.400446 4.595522 -1.746498
v 0.700446 4.095522 -1.746499
v 0.4 0 -0.599384
v 0.4 4.095522 -0.499486
v 0.1 -0 -0.599384
v 0.1 3.995522 -0.599384
v 0.4 3.995522 -0.599384
v 0.4 0 -0.499486
v 0.7 4.095522 -0.499486
v 0.7 0 -0.499486
v 0.700898 4.595522 -0.026682
v 0.7 4.595522 -0.499487
v 0.4 4.695521 -0.499487
v 0.4 4.595522 -0.499487
v 0.4 4.695521 -0.026677
v -0.100136 4.695521 -1.498459
v -0.100136 4.695521 -1.746501
v -0.100136 4.695521 -0.499487
v -0.100136 4.695521 -0.026677
v 0.400898 1e-06 -0.026682
v 0.700898 1e-06 -0.026682
v -0.100136 0 -0.026677
v 0.400898 4.095521 -0.026682
v 0.400898 4.595522 -0.026682
v -0.100136 4.595521 -0.026677
v -0.100136 4.095522 -0.026677
v 0.700898 4.095522 -0.026682
v 1.601437 -0 -2.6
v 1.501539 4.095522 -2.6
v 1.601437 -0 -2.9
v 1.601436 3.995522 -2.9
v 1.601436 3.995522 -2.6
v 1.501539 0 -2.6
v 1.501539 4.095522 -2.3
v 1.501539 0 -2.3
v 1.253501 4.595522 -2.299554
v 1.253501 -0 -2.3
v 1.50154 4.595522 -2.3
v 1.50154 4.695521 -2.6
v 1.50154 4.595522 -2.6
v 1.253498 4.695521 -2.6
v 1.253501 4.595522 -2.599553
v 1.253501 4.095522 -2.299554
v 2.400616 -0 -2.6
v 2.500513 4.095521 -2.6
v 2.400616 -0 -2.9
v 2.400616 3.995522 -2.9
v 2.400616 3.995522 -2.6
v 2.500513 -0 -2.6
v 2.500513 4.095521 -2.299999
v 2.500513 -0 -2.299999
v 2.973317 4.595521 -2.299101
v 2.500512 4.595521 -2.3
v 2.500512 4.695521 -2.6
v 2.500512 4.595521 -2.6
v 2.973323 4.695521 -2.599999
v 1.50154 4.695521 -3.100136
v 1.253498 4.695521 -3.100136
v 2.500512 4.695521 -3.100136
v 2.973323 4.695521 -3.100136
v 2.973317 1e-06 -2.599101
v 2.973317 1e-06 -2.299101
v 2.973323 0 -3.100136
v 2.973317 4.095521 -2.599101
v 2.973317 4.595521 -2.599101
v 2.973323 4.59552 -3.100136
v 2.973323 4.095521 -3.100136
v 2.973317 4.095521 -2.299101
v 0.699398 4.595522 -2.300602
v 0.399589 4.695521 -2.60041
v 0.399731 4.595522 -2.600269
v -0.100034 4.695521 -3.100033
v 1.254542 -1.5e-05 -1.745458
v 1.254542 4.595507 -1.745457
v 1.254542 4.095507 -1.745457
v 0 15 0
v 0 0 0
v -1 15 0
v -1 0 0
v 3 15 -3
v 3 0 -3
v 3 15 -3.999999
v 3 0 -3.999999
v 0 15 -3
v 0 0 -3
v -1 15 -4
v -1 0 -4
#end vertices

#begin 211 textures vertices 
vt 0.5819052 0.9980469 0
vt 0.5819052 0.467911 0
vt 0.607425 0.467911 0
vt 0.5564917 0.9980469 0
vt 0.5564917 0.467911 0
vt 0.5354036 0.9980469 0
vt 0.5863369 0.467911 0
vt 0.6246583 0.2385465 0
vt 0.6295205 0.4378852 0
vt 0.9297266 0.001953125 0
vt 0.9297266 0.1964245 0
vt 0.9443283 0.1964245 0
vt 0.9081447 0.001953125 0
vt 0.9227464 0.2012918 0
vt 0.6527655 0.001953126 0
vt 0.671761 0.2256279 0
vt 0.6717609 0.001953125 0
vt 0.8283952 0.2844391 0
vt 0.8213626 0.2624758 0
vt 0.8283893 0.2698374 0
vt 0.6191114 0.4526379 0
vt 0.8163167 0.269864 0
vt 0.6648381 0.2012918 0
vt 0.9443283 0.4297938 0
vt 0.5808981 0.4378852 0
vt 0.5368872 0.2385465 0
vt 0.9297266 0.2353224 0
vt 0.5857603 0.4330179 0
vt 0.5808981 0.2385465 0
vt 0.9227464 0.2499142 0
vt 0.9227464 0.4492528 0
vt 0.90003 0.2844543 0
vt 0.8770175 0.2844198 0
vt 0.8699849 0.2624564 0
vt 0.8770116 0.2698181 0
vt 0.8929977 0.2624473 0
vt 0.8213529 0.238133 0
vt 0.8092801 0.2381378 0
vt 0.8699752 0.2381136 0
vt 0.53687 0.2304951 0
vt 0.5612565 0.001953174 0
vt 0.5811306 0.001953175 0
vt 0.53687 0.001953125 0
vt 0.5612565 0.2012917 0
vt 0.9000242 0.2698526 0
vt 0.53687 0.2256279 0
vt 0.53687 0.2012918 0
vt 0.5811306 0.2012918 0
vt 0.9734606 0.001953125 0
vt 0.6873366 0.4378852 0
vt 0.6425489 0.2385465 0
vt 0.9880623 0.1964245 0
vt 0.9734606 0.1964245 0
vt 0.6873366 0.2385465 0
vt 0.9519922 0.2012918 0
vt 0.9519922 0.001953125 0
vt 0.7360833 0.2256279 0
vt 0.7360833 0.001953125 0
vt 0.7893978 0.3234675 0
vt 0.7677694 0.3161116 0
vt 0.7747961 0.3234733 0
vt 0.7022348 0.4526379 0
vt 0.7748131 0.3114007 0
vt 0.7360833 0.2012918 0
vt 0.7310968 0.2385465 0
vt 0.735959 0.4378851 0
vt 0.9880623 0.4297939 0
vt 0.6814469 0.4330179 0
vt 0.7310968 0.4330179 0
vt 0.9665939 0.4492528 0
vt 0.9519921 0.2499142 0
vt 0.7967783 0.001953126 0
vt 0.8197908 0.2256279 0
vt 0.7894172 0.3720898 0
vt 0.7677887 0.3647339 0
vt 0.7748155 0.3720956 0
vt 0.7859426 0.4525201 0
vt 0.7434266 0.3161213 0
vt 0.7434218 0.3040485 0
vt 0.7434459 0.3647436 0
vt 0.7434551 0.3877564 0
vt 0.8414289 0.001953174 0
vt 0.8268272 0.001953174 0
vt 0.8658154 0.001953125 0
vt 0.8414289 0.2012917 0
vt 0.8414289 0.2256279 0
vt 0.8658154 0.2256278 0
vt 0.8658154 0.2012917 0
vt 0.8197908 0.2012917 0
vt 0.789353 0.2844254 0
vt 0.6606731 0.4526967 0
vt 0.6606731 0.4478295 0
vt 0.7434006 0.238169 0
vt 0.7040971 0.001953125 0
vt 0.6987301 0.2256298 0
vt 0.6987325 0.2012937 0
vt 0.05062546 0.7320382 0
vt 0.2224058 0.001953125 0
vt 0.1966425 0.7320382 0
vt 0.001953125 0.001953125 0
vt 0.516445 0.7320382 0
vt 0.001953125 0.001953125 0
vt 0.05062542 0.7320382 0
vt 0.001953125 0.001953125 0
vt 0.3684228 0.7320382 0
vt 0.370428 0.001953125 0
vt 0.1966425 0.7320382 0
vt 0.001953125 0.001953125 0
vt 0.6648381 0.001953125 0
vt 0.6717633 0.2012918 0
vt 0.731047 0.2012951 0
vt 0.731088 0.00195647 0
vt 0.8163225 0.2844657 0
vt 0.6648381 0.2256279 0
vt 0.7967782 0.2256279 0
vt 0.6527654 0.2256279 0
vt 0.7894147 0.3113949 0
vt 0.7310446 0.2256313 0
vt 0.6041431 0.2256279 0
vt 0.7481559 0.2256279 0
vt 0.8163839 0.3114348 0
vt 0.7894701 0.3951023 0
vt 0.5758582 0.2256279 0
vt 0.7748684 0.3951081 0
vt 0.6191181 0.4477707 0
vt 0.6070454 0.4477537 0
vt 0.7747617 0.2698457 0
vt 0.762923 0.4476851 0
vt 0.5354106 0.4476527 0
vt 0.7143007 0.4477537 0
vt 0.702228 0.4477707 0
vt 0.5584232 0.4476851 0
vt 0.5584163 0.4525523 0
vt 0.7143076 0.4526208 0
vt 0.7629298 0.4525523 0
vt 0.7677281 0.2624771 0
vt 0.6070386 0.4526208 0
vt 0.8092898 0.2624806 0
vt 0.7677646 0.3040389 0
vt 0.892988 0.2381045 0
vt 0.5612128 0.2304951 0
vt 0.5354036 0.4525201 0
vt 0.5612565 0.2256279 0
vt 0.7859355 0.4476527 0
vt 0.8414726 0.2304951 0
vt 0.8658154 0.2304951 0
vt 0.7677979 0.3877468 0
vt 0.5811306 0.2256279 0
vt 0.5758582 0.2012918 0
vt 0.5758582 0.001953174 0
vt 0.8268272 0.2256279 0
vt 0.8268272 0.2012917 0
vt 0.8197908 0.001953175 0
vt 0.9081447 0.4492528 0
vt 0.6295205 0.2385465 0
vt 0.9081447 0.2499142 0
vt 0.9081447 0.2012918 0
vt 0.6246583 0.4330179 0
vt 0.9443283 0.2353224 0
vt 0.5857603 0.2385465 0
vt 0.9443283 0.001953125 0
vt 0.5757851 0.2385465 0
vt 0.5757851 0.4330179 0
vt 0.5368872 0.4330179 0
vt 0.9297266 0.4297938 0
vt 0.6041431 0.001953126 0
vt 0.6041431 0.2012918 0
vt 0.9227464 0.001953125 0
vt 0.6527655 0.2012918 0
vt 0.7481559 0.001953126 0
vt 0.7481559 0.2012918 0
vt 0.9519921 0.4492528 0
vt 0.7967783 0.2012917 0
vt 0.9734606 0.2353225 0
vt 0.6921988 0.4330179 0
vt 0.9734606 0.4297939 0
vt 0.6921989 0.2385465 0
vt 0.9665939 0.2012918 0
vt 0.9665939 0.2499142 0
vt 0.735959 0.2385465 0
vt 0.9665939 0.001953125 0
vt 0.6425489 0.4330179 0
vt 0.9880623 0.001953125 0
vt 0.6814468 0.2385465 0
vt 0.9880623 0.2353225 0
vt 0.5608171 0.9980469 0
vt 0.5354036 0.467911 0
vt 0.5863369 0.4889992 0
vt 0.5608171 0.467911 0
vt 0.607425 0.4889992 0
vt 0.3697043 0.7974956 0
vt 0.3696461 0.9435127 0
vt 0.418396 0.7488427 0
vt 0.4183185 0.943532 0
vt 0.2237067 0.7487652 0
vt 0.2236873 0.7974375 0
vt 0.3684228 0.001953125 0
vt 0.05062546 0.001953125 0
vt 0.370428 0.7320382 0
vt 0.2224058 0.7320382 0
vt 0.001953125 0.7320382 0
vt 0.516445 0.001953125 0
vt 0.001953125 0.7320382 0
vt 0.1966425 0.001953125 0
vt 0.05062542 0.001953125 0
vt 0.001953125 0.7320382 0
vt 0.001953125 0.7320382 0
vt 0.1966425 0.001953125 0
vt 0.7040777 0.2012918 0
vt 0.7040754 0.2256279 0
vt 0.6987519 0.001955014 0
#end 211 textures vertices 

#begin 38 normals 
vn 1 0 0
vn 0 0 1
vn 0 1 0
vn 1 0 0
vn 0 0 1
vn 0 1 -0
vn 0 -1 0
vn 1 -0.0001 0.0009
vn 1 -0 0.0013
vn 1 -0 0.0009
vn 1 0 -0.0013
vn 1 0 -0.001
vn 1 0 0.0018
vn 1 0.0011 0.0004
vn 1 0.0026 0.0001
vn 0 0 -1
vn 1 0 -0.0019
vn 1 0.0022 -0.0005
vn 1 0.0045 -0.001
vn 1 0.0029 -0.0007
vn -0.0019 -0 1
vn 0.0009 -0.0001 1
vn 0.0009 -0 1
vn 0.0013 -0 1
vn -0.0013 0 1
vn -0.001 0 1
vn 0.0018 -0 1
vn 0.0004 0.0011 1
vn 0.0001 0.0026 1
vn -1 0 0
vn -0.0005 0.0022 1
vn -0.001 0.0045 1
vn -0.0007 0.0029 1
vn 0 0 1
vn -1 0 -0
vn 1 0 0
vn 0 1 -0
vn 0 -0 -1
#end 38 normals 

#begin 80 faces
o 001_CornerPiece_LP_Cube:005
usemtl None
s 1
f 6/6/1 7/187/1 5/5/1 4/4/1 
f 4/186/2 5/189/2 2/2/2 1/1/2 
f 7/7/3 3/3/3 2/190/3 5/188/3 
o 000_Boarding_Corner_LP_Plane:027
usemtl None
s 1
f 26/26/4 10/162/4 11/163/4 27/164/4 
f 8/161/5 12/12/5 11/11/5 10/10/5 
f 33/33/6 18/18/6 20/20/6 35/35/6 
f 25/25/4 28/28/4 12/158/4 9/9/4 
f 13/155/4 9/9/4 12/158/4 8/8/4 
f 19/19/6 37/37/6 39/39/6 34/34/6 
f 9/157/5 13/13/5 15/168/5 14/14/5 
f 28/159/7 27/27/7 11/11/7 12/12/7 
f 17/109/8 23/23/9 14/169/10 15/15/8 
f 14/14/7 30/30/7 25/156/7 9/157/7 
f 30/167/11 14/169/10 18/116/10 33/119/12 
f 23/23/9 16/114/13 18/116/10 14/169/10 
f 16/113/6 22/22/6 20/20/6 18/18/6 
f 20/126/14 22/125/15 21/21/15 19/137/14 
f 24/24/16 26/165/16 27/27/16 28/159/16 
f 29/29/4 24/160/4 28/28/4 25/25/4 
f 25/156/16 30/30/16 31/31/16 29/154/16 
f 42/42/17 31/166/17 30/167/11 48/48/17 
f 48/48/17 30/167/11 33/119/12 32/148/17 
f 32/32/6 33/33/6 35/35/6 45/45/6 
f 35/132/18 34/133/18 36/142/19 45/129/19 
f 19/19/6 21/138/6 38/38/6 37/37/6 
f 36/36/6 34/34/6 39/39/6 40/140/6 
f 91/91/20 21/21/15 22/125/15 92/92/20 
f 32/123/5 45/143/5 44/44/5 48/149/5 
f 36/141/5 40/40/5 46/46/5 45/143/5 
f 45/143/5 46/46/5 47/47/5 44/44/5 
f 48/149/5 44/44/5 41/41/5 42/150/5 
f 44/44/5 47/47/5 43/43/5 41/41/5 
f 19/137/14 34/133/18 35/132/18 20/126/14 
f 16/16/21 23/110/21 96/96/21 95/95/21 
f 23/110/21 17/17/21 94/211/21 96/96/21 
f 21/138/6 91/136/6 93/93/6 38/38/6 
f 16/113/6 90/90/6 92/127/6 22/22/6 
f 67/184/5 68/68/5 52/182/5 51/51/5 
f 49/49/4 51/183/4 52/52/4 53/53/4 
f 74/74/6 76/76/6 61/61/6 59/59/6 
f 66/66/5 50/50/5 53/175/5 69/69/5 
f 54/54/5 49/177/5 53/175/5 50/50/5 
f 60/60/6 75/75/6 80/80/6 78/78/6 
f 50/178/4 55/55/4 56/56/4 54/181/4 
f 69/174/7 53/53/7 52/52/7 68/185/7 
f 58/58/22 56/170/22 55/171/23 64/64/24 
f 55/55/7 50/178/7 66/179/7 71/71/7 
f 71/173/25 74/115/26 59/120/23 55/171/23 
f 64/64/24 55/171/23 59/120/23 57/57/27 
f 57/117/6 59/59/6 61/61/6 63/63/6 
f 61/130/28 60/134/28 62/62/29 63/131/29 
f 65/176/30 69/174/30 68/185/30 67/67/30 
f 70/180/5 66/66/5 69/69/5 65/65/5 
f 66/179/30 70/70/30 72/172/30 71/71/30 
f 83/153/21 89/89/21 71/173/25 72/72/21 
f 89/89/21 73/73/21 74/115/26 71/173/25 
f 73/122/6 86/124/6 76/76/6 74/74/6 
f 76/128/31 86/144/32 77/77/32 75/135/31 
f 60/60/6 78/78/6 79/79/6 62/139/6 
f 77/147/6 81/81/6 80/80/6 75/75/6 
f 91/91/33 92/92/33 63/131/29 62/62/29 
f 73/151/4 89/152/4 85/85/4 86/86/4 
f 77/145/4 86/86/4 87/87/4 81/146/4 
f 86/86/4 85/85/4 88/88/4 87/87/4 
f 89/152/4 83/83/4 82/82/4 85/85/4 
f 85/85/4 82/82/4 84/84/4 88/88/4 
f 60/134/28 61/130/28 76/128/31 75/135/31 
f 57/118/17 95/210/17 96/209/17 64/111/17 
f 64/111/17 96/209/17 94/94/17 58/112/17 
f 62/139/6 79/79/6 93/93/6 91/136/6 
f 57/117/6 63/63/6 92/127/6 90/90/6 
f 95/121/6 57/117/6 90/90/6 16/113/6 
o 002_Wall_LP_Plane:028
usemtl None
s off
f 98/198/34 97/97/34 99/203/34 100/100/34 
f 99/99/35 107/207/35 108/108/35 100/204/35 
f 97/200/36 98/98/36 106/197/36 105/105/36 
f 97/192/37 105/191/37 107/193/37 99/194/37 
f 102/102/36 104/205/36 103/103/36 101/201/36 
f 103/206/38 104/104/38 108/208/38 107/107/38 
f 101/101/34 105/199/34 106/106/34 102/202/34 
f 101/196/37 103/195/37 107/193/37 105/191/37 
#end 80 faces

#begin properties
#ZOMPROPERTIES_02 table {Mesh table {Islands table {0 table {TopoStable table {Pack table {Locked bool true BBoxMode bool true } } PolyIDs ints { 0 } } 1 table {TopoStable table {Pack table {Locked bool true BBoxMode bool true } } PolyIDs ints { 1 } } 2 table {TopoStable table {Pack table {Locked bool true BBoxMode bool true } } PolyIDs ints { 2 } } 3 table {TopoStable table {Pack table {Locked bool true BBoxMode bool true } } PolyIDs ints { 72 } } 4 table {TopoStable table {Pack table {Locked bool true BBoxMode bool true } } PolyIDs ints { 73 } } 5 table {TopoStable table {Pack table {Locked bool true BBoxMode bool true } } PolyIDs ints { 74 } } 6 table {TopoStable table {Pack table {Locked bool true BBoxMode bool true } } PolyIDs ints { 75 79 } } 7 table {TopoStable table {Pack table {Locked bool true BBoxMode bool true } } PolyIDs ints { 76 } } 8 table {TopoStable table {Pack table {Locked bool true BBoxMode bool true } } PolyIDs ints { 77 } } 9 table {TopoStable table {Pack table {Locked bool true BBoxMode bool true } } PolyIDs ints { 78 } } } SymPlane table {Point vector3d 0 0 0 Normal vector3d 1 0 0 Threshold double 0.01 Enabled bool false EdgeID int -1 SymEdgeID int -1 UPos double 0.5 LocalMode bool false } RootGroup CSubMeshGroup {Children table {Tile_0_0 CSubMeshGroup {Children table {G2 CSubMeshGroup {Children table {} BBoxUV box3d 0.5354036 0.607425 0.467911 0.9980469 0 0 BBox3D box3d 0 0 0 0 0 0 AreaUV double 0.02280384 Area3D double 9.625951 IsRoot bool false TopoStable table {Selected bool true Box box3d 0.5354036 0.607425 0.467911 0.9980469 0 0 U int 0 V int 0 NU int 0 NV int 0 Tiling vector3d 1 1 1 TileRatioMode string "1:1" Pack table {Locked bool true BBoxMode bool true } } IsTile bool false PolyIDs ints { 0 1 2 } } G0 CSubMeshGroup {Children table {} BBoxUV box3d 0.001953125 0.516445 0.001953125 0.943532 0 0 BBox3D box3d 0 0 0 0 0 0 AreaUV double 0.5851421 Area3D double 247 IsRoot bool false TopoStable table {Selected bool true Box box3d 0.001953125 0.516445 0.001953125 0.943532 0 0 U int 0 V int 0 NU int 0 NV int 0 Tiling vector3d 1 1 1 TileRatioMode string "1:1" Pack table {Locked bool true BBoxMode bool true } } IsTile bool false PolyIDs ints { 72 73 74 75 79 76 77 78 } } G1 CSubMeshGroup {Children table {} BBoxUV box3d 0.5354036 0.9880623 0.001953125 0.4526967 0 0 BBox3D box3d 0 0 0 0 0 0 AreaUV double 0.1048311 Area3D double 44.25126 IsRoot bool false TopoStable table {Selected bool true Box box3d 0.5354036 0.9880623 0.001953125 0.4526967 0 0 U int 0 V int 0 NU int 0 NV int 0 Tiling vector3d 1 1 1 TileRatioMode string "1:1" Pack table {Locked bool true BBoxMode bool true } } IsTile bool false PolyIDs ints { 3 4 10 17 5 15 36 70 49 39 56 71 22 6 7 18 8 25 24 35 69 58 42 59 9 12 19 11 14 13 21 20 16 26 60 50 66 57 32 23 27 30 31 29 28 33 34 37 38 44 51 40 41 52 43 46 53 45 48 47 55 54 61 63 65 64 62 67 68 } } } BBoxUV box3d 0 0 0 0 0 0 BBox3D box3d 0 0 0 0 0 0 AreaUV double 0.7127771 Area3D double 0 IsRoot bool false TopoStable table {Selected bool false Box box3d 0 1 0 1 0 1 U int 0 V int 0 NU int 0 NV int 0 Tiling vector3d 1 1 1 TileRatioMode string "1:1" } IsTile bool true PolyIDs ints { } } } BBoxUV box3d 0 0 0 0 0 0 BBox3D box3d 0 0 0 0 0 0 AreaUV double 0 Area3D double 0 IsRoot bool true TopoStable table {Selected bool false Box box3d 0 1 0 1 0 1 U int 0 V int 0 NU int 1 NV int 1 Tiling vector3d 1 1 1 TileRatioMode string "1:1" Pack table {Rotate table {Mode int 2 Min double 0 Max double 180 Step double 0 } SpacingSize double 0.015625 MarginSize double 0.001953125 Resolution int 200 Scaling table {Mode int 0 } LayoutScalingMode int 2 MaxMutations int 1 } } IsTile bool false PolyIDs ints { } } Maps table {Density table {PrimType string "Polygon" Size int 1 DefaultValue double 1 ScaleType string "Log" Mergeode string "Average" MinValue double 0.1 MaxValue double 4 Data doubles { r 80 1 } } Pin table {PrimType string "Vertex" Size int 1 DefaultValue double 0 ScaleType string "Normalized" Mergeode string "Max" MinValue double 0 MaxValue double 1 Data doubles { r 211 0 } } Protect table {PrimType string "Vertex" Size int 1 DefaultValue double 0 ScaleType string "Normalized" Mergeode string "Average" MinValue double -1 MaxValue double 1 Data doubles { r 211 0 } } } } }
#end properties

#begin 0 fatal error vertex (that RizomUV cannot handle)
#end 0 fatal error vertex (that RizomUV cannot handle)

#begin 0 error vertex
#end 0 error vertex
