# Blender v2.81 (sub 16) OBJ File: 'ModularWallCorner_001_SSM_v001_001.blend'
# www.blender.org
mtllib mdlWallCorner001_v001_SSM_LP.mtl
o 002_Wall_LP_002_Wall_LP_Plane:028
v 0.000000 0.000000 0.000000
v 0.000000 15.000000 0.000002
v -1.000000 15.000000 0.000002
v -1.000000 0.000000 0.000000
v -1.000000 15.000001 -3.999998
v -1.000000 0.000001 -4.000000
v 0.000000 0.000000 -3.000000
v 0.000000 15.000001 -2.999998
v 3.000000 0.000000 -3.000000
v 3.000000 0.000001 -3.999999
v 3.000000 15.000001 -3.999997
v 3.000000 15.000001 -2.999998
vt 0.050625 0.001953
vt 0.050625 0.732038
vt 0.001953 0.732038
vt 0.001953 0.001953
vt 0.196643 0.732038
vt 0.001953 0.732038
vt 0.001953 0.001953
vt 0.196643 0.001953
vt 0.222406 0.732038
vt 0.222406 0.001953
vt 0.368423 0.001953
vt 0.368423 0.732038
vt 0.369646 0.943513
vt 0.369704 0.797496
vt 0.418396 0.748843
vt 0.418319 0.943532
vt 0.001953 0.001953
vt 0.050625 0.001953
vt 0.050625 0.732038
vt 0.001953 0.732038
vt 0.001953 0.732038
vt 0.001953 0.001953
vt 0.196643 0.001953
vt 0.196643 0.732038
vt 0.516445 0.732038
vt 0.370428 0.732038
vt 0.370428 0.001953
vt 0.516445 0.001953
vt 0.223687 0.797437
vt 0.223707 0.748765
vn 0.0000 -0.0000 1.0000
vn -1.0000 0.0000 0.0000
vn 1.0000 0.0000 0.0000
vn -0.0000 1.0000 0.0000
vn 0.0000 0.0000 -1.0000
usemtl None
s off
f 1/1/1 2/2/1 3/3/1 4/4/1
f 3/5/2 5/6/2 6/7/2 4/8/2
f 2/9/3 1/10/3 7/11/3 8/12/3
f 2/13/4 8/14/4 5/15/4 3/16/4
f 9/17/3 10/18/3 11/19/3 12/20/3
f 11/21/5 10/22/5 6/23/5 5/24/5
f 12/25/1 8/26/1 7/27/1 9/28/1
f 12/29/4 11/30/4 5/15/4 8/14/4
