# Blender v2.81 (sub 16) OBJ File: 'ModularWallCorner_001_SSM_v001_001.blend'
# www.blender.org
mtllib mdlWallCornerBoarding001_v001_SSM_LP.mtl
o 000_Boarding_Corner_LP_000_Boarding_Corner_LP_Plane:027
v 0.100000 0.000000 -0.599384
v 0.100000 0.000000 -1.398563
v 0.100000 3.995522 -1.398562
v 0.100000 3.995522 -0.599383
v 0.400000 0.000000 -1.398563
v 0.400000 3.995522 -1.398562
v 0.700000 4.595522 -0.499486
v 0.700000 4.595522 -1.498458
v 0.400000 4.595522 -1.498458
v 0.400000 4.595522 -0.499486
v 0.400000 4.095522 -0.499485
v 0.400000 3.995522 -0.599383
v 0.400000 4.095522 -1.498459
v 0.400000 0.000000 -1.498460
v 0.400000 4.695521 -1.498458
v -0.100136 4.695521 -1.498458
v -0.100136 4.695521 -0.499486
v 0.400000 4.695521 -0.499486
v 0.700000 0.000000 -1.498460
v 0.700000 4.095522 -1.498459
v 0.700000 0.000000 -1.746499
v 0.700446 4.095522 -1.746498
v 0.700000 4.095522 -0.499485
v 0.700446 4.595522 -1.746497
v 0.400446 4.595522 -1.746497
v 0.400000 4.695521 -1.746500
v 0.400000 0.000000 -0.599384
v 0.400000 0.000000 -0.499486
v 0.700000 0.000000 -0.499486
v 0.700898 0.000001 -0.026682
v 0.700898 4.095522 -0.026681
v 0.700898 4.595522 -0.026681
v 0.400898 4.595522 -0.026681
v 0.400000 4.695521 -0.026676
v -0.100136 4.695521 -1.746500
v -0.100136 4.695521 -0.026676
v 0.399589 4.695521 -2.600409
v 0.399731 4.595522 -2.600268
v 0.400898 4.095521 -0.026681
v -0.100136 4.595521 -0.026676
v -0.100136 4.095522 -0.026676
v 0.400898 0.000001 -0.026682
v -0.100136 0.000000 -0.026677
v 1.254542 4.095508 -1.745456
v 1.254542 4.595508 -1.745456
v 1.254542 -0.000015 -1.745458
v -0.100034 4.695521 -3.100032
v 0.699398 4.595522 -2.300601
v 2.400616 0.000000 -2.900000
v 2.400616 3.995522 -2.899999
v 1.601436 3.995522 -2.899999
v 1.601437 0.000000 -2.900000
v 1.601437 0.000000 -2.600000
v 1.601436 3.995522 -2.599999
v 2.500512 4.595521 -2.299999
v 2.500512 4.595521 -2.599999
v 1.501540 4.595522 -2.599999
v 1.501540 4.595522 -2.299999
v 2.500513 4.095521 -2.599999
v 1.501539 4.095522 -2.599999
v 2.400616 3.995522 -2.599999
v 1.501539 0.000000 -2.600000
v 1.501540 4.695521 -2.599999
v 2.500512 4.695521 -2.599999
v 2.500512 4.695521 -3.100135
v 1.501540 4.695521 -3.100135
v 1.501539 4.095522 -2.299999
v 1.501539 0.000000 -2.300000
v 1.253501 0.000000 -2.300000
v 1.253501 4.095522 -2.299553
v 2.500513 4.095521 -2.299998
v 1.253501 4.595522 -2.299553
v 1.253501 4.595522 -2.599552
v 1.253498 4.695521 -2.599999
v 2.400616 0.000000 -2.600000
v 2.500513 0.000000 -2.600000
v 2.500513 0.000000 -2.299999
v 2.973317 0.000001 -2.299101
v 2.973317 4.095521 -2.299100
v 2.973317 4.595521 -2.299100
v 2.973317 4.595521 -2.599100
v 2.973323 4.695521 -2.599998
v 1.253498 4.695521 -3.100135
v 2.973323 4.695521 -3.100135
v 2.973317 4.095521 -2.599100
v 2.973323 4.595520 -3.100135
v 2.973323 4.095521 -3.100135
v 2.973317 0.000001 -2.599101
v 2.973323 0.000001 -3.100136
vt 0.536887 0.238547
vt 0.575785 0.238547
vt 0.575785 0.433018
vt 0.536887 0.433018
vt 0.944328 0.001953
vt 0.944328 0.196424
vt 0.929727 0.196424
vt 0.929727 0.001953
vt 0.877017 0.284420
vt 0.828395 0.284439
vt 0.828389 0.269837
vt 0.877012 0.269818
vt 0.580898 0.437885
vt 0.585760 0.433018
vt 0.624658 0.433018
vt 0.629520 0.437885
vt 0.629520 0.238547
vt 0.624658 0.238547
vt 0.821363 0.262476
vt 0.821353 0.238133
vt 0.869975 0.238114
vt 0.869985 0.262456
vt 0.908145 0.201292
vt 0.908145 0.001953
vt 0.922746 0.001953
vt 0.922746 0.201292
vt 0.944328 0.235322
vt 0.929727 0.235322
vt 0.664838 0.001953
vt 0.664838 0.201292
vt 0.652766 0.201292
vt 0.652766 0.001953
vt 0.922746 0.249914
vt 0.908145 0.249914
vt 0.604143 0.201292
vt 0.652765 0.225628
vt 0.604143 0.225628
vt 0.664838 0.225628
vt 0.816323 0.284466
vt 0.816317 0.269864
vt 0.607045 0.447754
vt 0.619118 0.447771
vt 0.619111 0.452638
vt 0.607039 0.452621
vt 0.944328 0.429794
vt 0.929727 0.429794
vt 0.580898 0.238547
vt 0.585760 0.238547
vt 0.922746 0.449253
vt 0.908145 0.449253
vt 0.581131 0.001953
vt 0.604143 0.001953
vt 0.581131 0.201292
vt 0.581131 0.225628
vt 0.900030 0.284454
vt 0.900024 0.269853
vt 0.558423 0.447685
vt 0.558416 0.452552
vt 0.535404 0.452520
vt 0.535411 0.447653
vt 0.809290 0.262481
vt 0.809280 0.238138
vt 0.892998 0.262447
vt 0.892988 0.238105
vt 0.660673 0.452697
vt 0.660673 0.447830
vt 0.575858 0.225628
vt 0.561257 0.225628
vt 0.561257 0.201292
vt 0.575858 0.201292
vt 0.561213 0.230495
vt 0.536870 0.230495
vt 0.536870 0.225628
vt 0.536870 0.201292
vt 0.561257 0.001953
vt 0.575858 0.001953
vt 0.536870 0.001953
vt 0.671761 0.225628
vt 0.671763 0.201292
vt 0.698732 0.201294
vt 0.698730 0.225630
vt 0.671761 0.001953
vt 0.698752 0.001955
vt 0.767728 0.262477
vt 0.743401 0.238169
vt 0.789353 0.284425
vt 0.774762 0.269846
vt 0.681447 0.238547
vt 0.681447 0.433018
vt 0.642549 0.433018
vt 0.642549 0.238547
vt 0.973461 0.001953
vt 0.988062 0.001953
vt 0.988062 0.196424
vt 0.973461 0.196424
vt 0.789417 0.372090
vt 0.774815 0.372096
vt 0.774796 0.323473
vt 0.789398 0.323467
vt 0.735959 0.437885
vt 0.687337 0.437885
vt 0.692199 0.433018
vt 0.731097 0.433018
vt 0.687337 0.238547
vt 0.692199 0.238547
vt 0.767769 0.316112
vt 0.767789 0.364734
vt 0.743446 0.364744
vt 0.743427 0.316121
vt 0.966594 0.201292
vt 0.951992 0.201292
vt 0.951992 0.001953
vt 0.966594 0.001953
vt 0.973461 0.235323
vt 0.988062 0.235323
vt 0.736083 0.001953
vt 0.748156 0.001953
vt 0.748156 0.201292
vt 0.736083 0.201292
vt 0.966594 0.249914
vt 0.951992 0.249914
vt 0.796778 0.201292
vt 0.796778 0.225628
vt 0.748156 0.225628
vt 0.736083 0.225628
vt 0.789415 0.311395
vt 0.774813 0.311401
vt 0.714301 0.447754
vt 0.714308 0.452621
vt 0.702235 0.452638
vt 0.702228 0.447771
vt 0.973461 0.429794
vt 0.988062 0.429794
vt 0.735959 0.238547
vt 0.731097 0.238547
vt 0.966594 0.449253
vt 0.951992 0.449253
vt 0.819791 0.001953
vt 0.819791 0.201292
vt 0.796778 0.001953
vt 0.819791 0.225628
vt 0.789470 0.395102
vt 0.774868 0.395108
vt 0.762923 0.447685
vt 0.785936 0.447653
vt 0.785943 0.452520
vt 0.762930 0.452552
vt 0.743422 0.304049
vt 0.767765 0.304039
vt 0.767798 0.387747
vt 0.743455 0.387756
vt 0.826827 0.225628
vt 0.826827 0.201292
vt 0.841429 0.201292
vt 0.841429 0.225628
vt 0.841473 0.230495
vt 0.865815 0.225628
vt 0.865815 0.230495
vt 0.865815 0.201292
vt 0.826827 0.001953
vt 0.841429 0.001953
vt 0.865815 0.001953
vt 0.731045 0.225631
vt 0.704075 0.225628
vt 0.704078 0.201292
vt 0.731047 0.201295
vt 0.704097 0.001953
vt 0.731088 0.001956
vt 0.816384 0.311435
vn 1.0000 0.0000 0.0000
vn 0.0000 -0.0000 1.0000
vn 0.0000 1.0000 0.0000
vn 0.0000 -1.0000 0.0000
vn 1.0000 -0.0001 0.0009
vn 1.0000 -0.0000 0.0013
vn 1.0000 -0.0000 0.0009
vn 1.0000 -0.0000 -0.0013
vn 1.0000 -0.0000 -0.0009
vn 1.0000 -0.0000 0.0018
vn 1.0000 0.0011 0.0004
vn 1.0000 0.0026 0.0001
vn 0.0000 0.0000 -1.0000
vn 1.0000 0.0000 -0.0019
vn 1.0000 0.0022 -0.0005
vn 1.0000 0.0045 -0.0009
vn 1.0000 0.0029 -0.0007
vn -0.0019 -0.0000 1.0000
vn 0.0009 -0.0001 1.0000
vn 0.0009 -0.0000 1.0000
vn 0.0013 -0.0000 1.0000
vn -0.0013 0.0000 1.0000
vn -0.0010 0.0000 1.0000
vn 0.0018 -0.0000 1.0000
vn 0.0005 0.0011 1.0000
vn 0.0001 0.0026 1.0000
vn -1.0000 -0.0000 0.0000
vn -0.0005 0.0022 1.0000
vn -0.0010 0.0045 1.0000
vn -0.0007 0.0029 1.0000
usemtl None
s 1
f 1/1/1 2/2/1 3/3/1 4/4/1
f 5/5/2 6/6/2 3/7/2 2/8/2
f 7/9/3 8/10/3 9/11/3 10/12/3
f 11/13/1 12/14/1 6/15/1 13/16/1
f 14/17/1 13/16/1 6/15/1 5/18/1
f 15/19/3 16/20/3 17/21/3 18/22/3
f 13/23/2 14/24/2 19/25/2 20/26/2
f 12/27/4 4/28/4 3/7/4 6/6/4
f 21/29/5 22/30/6 20/31/7 19/32/5
f 20/26/4 23/33/4 11/34/4 13/23/4
f 23/35/8 20/31/7 8/36/7 7/37/9
f 22/30/6 24/38/10 8/36/7 20/31/7
f 24/39/3 25/40/3 9/11/3 8/10/3
f 9/41/11 25/42/12 26/43/12 15/44/11
f 27/45/13 1/46/13 4/28/13 12/27/13
f 28/47/1 27/48/1 12/14/1 11/13/1
f 11/34/13 23/33/13 29/49/13 28/50/13
f 30/51/14 29/52/14 23/35/8 31/53/14
f 31/53/14 23/35/8 7/37/9 32/54/14
f 32/55/3 7/9/3 10/12/3 33/56/3
f 10/57/15 18/58/15 34/59/16 33/60/16
f 15/19/3 26/61/3 35/62/3 16/20/3
f 34/63/3 18/22/3 17/21/3 36/64/3
f 37/65/17 26/43/12 25/42/12 38/66/17
f 32/67/2 33/68/2 39/69/2 31/70/2
f 34/71/2 36/72/2 40/73/2 33/68/2
f 33/68/2 40/73/2 41/74/2 39/69/2
f 31/70/2 39/69/2 42/75/2 30/76/2
f 39/69/2 41/74/2 43/77/2 42/75/2
f 15/44/11 18/58/15 10/57/15 9/41/11
f 24/78/18 22/79/18 44/80/18 45/81/18
f 22/79/18 21/82/18 46/83/18 44/80/18
f 26/61/3 37/84/3 47/85/3 35/62/3
f 24/39/3 48/86/3 38/87/3 25/40/3
f 49/88/2 50/89/2 51/90/2 52/91/2
f 53/92/1 52/93/1 51/94/1 54/95/1
f 55/96/3 56/97/3 57/98/3 58/99/3
f 59/100/2 60/101/2 54/102/2 61/103/2
f 62/104/2 53/105/2 54/102/2 60/101/2
f 63/106/3 64/107/3 65/108/3 66/109/3
f 60/110/1 67/111/1 68/112/1 62/113/1
f 61/114/4 54/95/4 51/94/4 50/115/4
f 69/116/19 68/117/19 67/118/20 70/119/21
f 67/111/4 60/110/4 59/120/4 71/121/4
f 71/122/22 55/123/23 58/124/20 67/118/20
f 70/119/21 67/118/20 58/124/20 72/125/24
f 72/126/3 58/99/3 57/98/3 73/127/3
f 57/128/25 63/129/25 74/130/26 73/131/26
f 75/132/27 61/114/27 50/115/27 49/133/27
f 76/134/2 59/100/2 61/103/2 75/135/2
f 59/120/27 76/136/27 77/137/27 71/121/27
f 78/138/18 79/139/18 71/122/22 77/140/18
f 79/139/18 80/141/18 55/123/23 71/122/22
f 80/142/3 81/143/3 56/97/3 55/96/3
f 56/144/28 81/145/29 82/146/29 64/147/28
f 63/106/3 66/109/3 83/148/3 74/149/3
f 82/150/3 84/151/3 65/108/3 64/107/3
f 37/65/30 38/66/30 73/131/26 74/130/26
f 80/152/1 79/153/1 85/154/1 81/155/1
f 82/156/1 81/155/1 86/157/1 84/158/1
f 81/155/1 85/154/1 87/159/1 86/157/1
f 79/153/1 78/160/1 88/161/1 85/154/1
f 85/154/1 88/161/1 89/162/1 87/159/1
f 63/129/25 57/128/25 56/144/28 64/147/28
f 72/163/14 45/164/14 44/165/14 70/166/14
f 70/166/14 44/165/14 46/167/14 69/168/14
f 74/149/3 83/148/3 47/85/3 37/84/3
f 72/126/3 73/127/3 38/87/3 48/86/3
f 45/169/3 72/126/3 48/86/3 24/39/3
